<svg viewBox="0 0 34 32" fill="none" xmlns="http://www.w3.org/2000/svg"><path d="M0 7.97v15.86h3.252v-6.364a4.724 4.724 0 014.723-4.72h3.289v-3.25H7.975a7.979 7.979 0 00-4.723 1.552V7.97a4.724 4.724 0 014.723-4.72h8.739V0H7.975C3.58 0 0 3.577 0 7.97zm16.568 1.526h-3.252V23.83h3.252V9.496zm14.171-.137v2.496c-1.036-1.779-2.816-2.787-5.123-2.787-3.86 0-6.94 3.26-6.94 7.354s3.088 7.407 6.94 7.407c2.316 0 4.097-1.008 5.132-2.814v3.005a4.724 4.724 0 01-4.723 4.72h-7.776v3.25h7.776c4.396 0 7.975-3.576 7.975-7.97V9.359h-3.261zm0 7.08c-.01 2.479-1.908 4.276-4.415 4.276-2.461 0-4.423-1.897-4.423-4.302 0-2.37 1.962-4.267 4.423-4.267 2.516 0 4.406 1.824 4.415 4.248v.046z" fill="#000"/></svg>